{
	"asset":{
		"generator":"Khronos glTF Blender I/O v3.6.27",
		"version":"2.0"
	},
	"scene":0,
	"scenes":[
		{
			"name":"Scene",
			"nodes":[
				0,
				1,
				2
			]
		}
	],
	"nodes":[
		{
			"mesh":0,
			"name":"Cube",
			"rotation":[
				0.7071068286895752,
				0,
				0,
				0.7071068286895752
			]
		},
		{
			"mesh":1,
			"name":"Text",
			"rotation":[
				0.7071068286895752,
				0,
				0,
				0.7071068286895752
			],
			"scale":[
				0.0409649983048439,
				1,
				0.044471777975559235
			],
			"translation":[
				-0.2703484892845154,
				-0.20613756775856018,
				0.43565231561660767
			]
		},
		{
			"mesh":2,
			"name":"Monopoly",
			"rotation":[
				0.7071068286895752,
				0,
				0,
				0.7071068286895752
			],
			"translation":[
				0.02175949513912201,
				0.007340434473007917,
				0.5653483867645264
			]
		}
	],
	"materials":[
		{
			"alphaCutoff":0,
			"alphaMode":"MASK",
			"name":"Gold",
			"pbrMetallicRoughness":{
				"baseColorFactor":[
					0.6583747267723083,
					0.48571962118148804,
					0,
					1
				],
				"metallicFactor":0.8999999761581421,
				"roughnessFactor":0
			}
		},
		{
			"doubleSided":true,
			"name":"Engraved",
			"pbrMetallicRoughness":{
				"baseColorFactor":[
					0.9958460330963135,
					1,
					0.28466084599494934,
					1
				],
				"metallicFactor":0.9527559280395508,
				"roughnessFactor":0.07874015718698502
			}
		},
		{
			"alphaMode":"BLEND",
			"doubleSided":true,
			"name":"Monopoly",
			"pbrMetallicRoughness":{
				"baseColorTexture":{
					"index":0
				},
				"metallicFactor":0.9842519760131836,
				"roughnessFactor":0
			}
		}
	],
	"meshes":[
		{
			"name":"Credit Card",
			"primitives":[
				{
					"attributes":{
						"POSITION":0,
						"NORMAL":1,
						"TEXCOORD_0":2
					},
					"indices":3,
					"material":0
				}
			]
		},
		{
			"name":"Ivan D.",
			"primitives":[
				{
					"attributes":{
						"POSITION":4,
						"NORMAL":5,
						"TEXCOORD_0":6
					},
					"indices":7,
					"material":1
				}
			]
		},
		{
			"name":"Monopoly",
			"primitives":[
				{
					"attributes":{
						"POSITION":8,
						"NORMAL":9,
						"TEXCOORD_0":10
					},
					"indices":11,
					"material":2
				}
			]
		}
	],
	"textures":[
		{
			"sampler":0,
			"source":0
		}
	],
	"images":[
		{
			"bufferView":12,
			"mimeType":"image/png",
			"name":"Monopoly"
		}
	],
	"accessors":[
		{
			"bufferView":0,
			"componentType":5126,
			"count":3096,
			"max":[
				0.42800000309944153,
				0.0037999998312443495,
				0.2694999873638153
			],
			"min":[
				-0.42800000309944153,
				-0.0037999998312443495,
				-0.2694999873638153
			],
			"type":"VEC3"
		},
		{
			"bufferView":1,
			"componentType":5126,
			"count":3096,
			"type":"VEC3"
		},
		{
			"bufferView":2,
			"componentType":5126,
			"count":3096,
			"type":"VEC2"
		},
		{
			"bufferView":3,
			"componentType":5123,
			"count":6180,
			"type":"SCALAR"
		},
		{
			"bufferView":4,
			"componentType":5126,
			"count":344,
			"max":[
				1.380998134613037,
				-0.4317523241043091,
				0.30900144577026367
			],
			"min":[
				-1.3550004959106445,
				-0.4317523241043091,
				-0.3820004463195801
			],
			"type":"VEC3"
		},
		{
			"bufferView":5,
			"componentType":5126,
			"count":344,
			"type":"VEC3"
		},
		{
			"bufferView":6,
			"componentType":5126,
			"count":344,
			"type":"VEC2"
		},
		{
			"bufferView":7,
			"componentType":5123,
			"count":1008,
			"type":"SCALAR"
		},
		{
			"bufferView":8,
			"componentType":5126,
			"count":4,
			"max":[
				0.40156763792037964,
				-0.5614684224128723,
				0.2630644738674164
			],
			"min":[
				-0.4442310929298401,
				-0.5614714026451111,
				-0.2490234076976776
			],
			"type":"VEC3"
		},
		{
			"bufferView":9,
			"componentType":5126,
			"count":4,
			"type":"VEC3"
		},
		{
			"bufferView":10,
			"componentType":5126,
			"count":4,
			"type":"VEC2"
		},
		{
			"bufferView":11,
			"componentType":5123,
			"count":6,
			"type":"SCALAR"
		}
	],
	"bufferViews":[
		{
			"buffer":0,
			"byteLength":37152,
			"byteOffset":0,
			"target":34962
		},
		{
			"buffer":0,
			"byteLength":37152,
			"byteOffset":37152,
			"target":34962
		},
		{
			"buffer":0,
			"byteLength":24768,
			"byteOffset":74304,
			"target":34962
		},
		{
			"buffer":0,
			"byteLength":12360,
			"byteOffset":99072,
			"target":34963
		},
		{
			"buffer":0,
			"byteLength":4128,
			"byteOffset":111432,
			"target":34962
		},
		{
			"buffer":0,
			"byteLength":4128,
			"byteOffset":115560,
			"target":34962
		},
		{
			"buffer":0,
			"byteLength":2752,
			"byteOffset":119688,
			"target":34962
		},
		{
			"buffer":0,
			"byteLength":2016,
			"byteOffset":122440,
			"target":34963
		},
		{
			"buffer":0,
			"byteLength":48,
			"byteOffset":124456,
			"target":34962
		},
		{
			"buffer":0,
			"byteLength":48,
			"byteOffset":124504,
			"target":34962
		},
		{
			"buffer":0,
			"byteLength":32,
			"byteOffset":124552,
			"target":34962
		},
		{
			"buffer":0,
			"byteLength":12,
			"byteOffset":124584,
			"target":34963
		},
		{
			"buffer":0,
			"byteLength":596362,
			"byteOffset":124596
		}
	],
	"samplers":[
		{
			"magFilter":9729,
			"minFilter":9987,
			"wrapS":33071,
			"wrapT":33071
		}
	],
	"buffers":[
		{
			"byteLength":720960,
			"uri":"data:application/octet-stream;base64,"
		}
	]
}
