{
	"asset":{
		"generator":"Khronos glTF Blender I/O v3.6.27",
		"version":"2.0"
	},
	"scene":0,
	"scenes":[
		{
			"name":"Scene",
			"nodes":[
				0,
				1,
				2,
				3,
				4
			]
		}
	],
	"nodes":[
		{
			"mesh":0,
			"name":"Cube",
			"rotation":[
				0.7071068286895752,
				0,
				0,
				0.7071068286895752
			]
		},
		{
			"mesh":1,
			"name":"Text",
			"rotation":[
				0.7071068286895752,
				0,
				0,
				0.7071068286895752
			],
			"scale":[
				0.0409649983048439,
				1,
				0.044471777975559235
			],
			"translation":[
				-0.27709048986434937,
				-0.1931786835193634,
				0.43445155024528503
			]
		},
		{
			"mesh":2,
			"name":"Monopoly",
			"rotation":[
				0.7071068286895752,
				0,
				0,
				0.7071068286895752
			],
			"translation":[
				0.02175949513912201,
				0.007340434473007917,
				0.5653483867645264
			]
		},
		{
			"mesh":3,
			"name":"env_chip",
			"rotation":[
				0.7071068286895752,
				0,
				0,
				0.7071068286895752
			],
			"scale":[
				0.07999999821186066,
				0.07999999821186066,
				0.07999999821186066
			],
			"translation":[
				-0.2883836328983307,
				0.06408480554819107,
				0.021263062953948975
			]
		},
		{
			"mesh":4,
			"name":"frame",
			"rotation":[
				0.7071068286895752,
				0,
				0,
				0.7071068286895752
			],
			"scale":[
				0.5299999713897705,
				0.699999988079071,
				0.5199999809265137
			],
			"translation":[
				0.0008400953374803066,
				-0.0010194210335612297,
				0.5658033490180969
			]
		}
	],
	"materials":[
		{
			"alphaCutoff":0,
			"alphaMode":"MASK",
			"name":"Gold",
			"pbrMetallicRoughness":{
				"baseColorFactor":[
					0.6583747267723083,
					0.48571962118148804,
					0,
					1
				],
				"metallicFactor":0.8999999761581421,
				"roughnessFactor":0
			}
		},
		{
			"doubleSided":true,
			"name":"Engraved",
			"pbrMetallicRoughness":{
				"baseColorFactor":[
					1,
					1,
					0.28314897418022156,
					1
				],
				"metallicFactor":0.9527559280395508,
				"roughnessFactor":0.07874015718698502
			}
		},
		{
			"alphaMode":"BLEND",
			"doubleSided":true,
			"name":"Monopoly",
			"pbrMetallicRoughness":{
				"baseColorTexture":{
					"index":0
				},
				"metallicFactor":0.9842519760131836,
				"roughnessFactor":0.11811023950576782
			}
		},
		{
			"alphaMode":"BLEND",
			"doubleSided":true,
			"name":"env_chip",
			"pbrMetallicRoughness":{
				"baseColorTexture":{
					"index":1
				},
				"metallicFactor":0.9685039520263672,
				"roughnessFactor":0.36614173650741577
			}
		},
		{
			"alphaMode":"BLEND",
			"doubleSided":true,
			"name":"frame",
			"pbrMetallicRoughness":{
				"baseColorTexture":{
					"index":2
				},
				"metallicFactor":0.9763779640197754,
				"roughnessFactor":0.12992125749588013
			}
		}
	],
	"meshes":[
		{
			"name":"Credit Card",
			"primitives":[
				{
					"attributes":{
						"POSITION":0,
						"NORMAL":1,
						"TEXCOORD_0":2
					},
					"indices":3,
					"material":0
				}
			]
		},
		{
			"name":"Ivan D.",
			"primitives":[
				{
					"attributes":{
						"POSITION":4,
						"NORMAL":5,
						"TEXCOORD_0":6
					},
					"indices":7,
					"material":1
				}
			]
		},
		{
			"name":"Monopoly",
			"primitives":[
				{
					"attributes":{
						"POSITION":8,
						"NORMAL":9,
						"TEXCOORD_0":10
					},
					"indices":11,
					"material":2
				}
			]
		},
		{
			"name":"env_chip",
			"primitives":[
				{
					"attributes":{
						"POSITION":12,
						"NORMAL":13,
						"TEXCOORD_0":14
					},
					"indices":11,
					"material":3
				}
			]
		},
		{
			"name":"frame",
			"primitives":[
				{
					"attributes":{
						"POSITION":15,
						"NORMAL":16,
						"TEXCOORD_0":17
					},
					"indices":11,
					"material":4
				}
			]
		}
	],
	"textures":[
		{
			"sampler":0,
			"source":0
		},
		{
			"sampler":0,
			"source":1
		},
		{
			"sampler":0,
			"source":2
		}
	],
	"images":[
		{
			"bufferView":12,
			"mimeType":"image/png",
			"name":"Monopoly"
		},
		{
			"bufferView":16,
			"mimeType":"image/png",
			"name":"env_chip"
		},
		{
			"bufferView":20,
			"mimeType":"image/png",
			"name":"frame"
		}
	],
	"accessors":[
		{
			"bufferView":0,
			"componentType":5126,
			"count":3096,
			"max":[
				0.42800000309944153,
				0.0037999998312443495,
				0.2694999873638153
			],
			"min":[
				-0.42800000309944153,
				-0.0037999998312443495,
				-0.2694999873638153
			],
			"type":"VEC3"
		},
		{
			"bufferView":1,
			"componentType":5126,
			"count":3096,
			"type":"VEC3"
		},
		{
			"bufferView":2,
			"componentType":5126,
			"count":3096,
			"type":"VEC2"
		},
		{
			"bufferView":3,
			"componentType":5123,
			"count":6180,
			"type":"SCALAR"
		},
		{
			"bufferView":4,
			"componentType":5126,
			"count":344,
			"max":[
				1.3810005187988281,
				-0.43055155873298645,
				0.3090019226074219
			],
			"min":[
				-1.3550019264221191,
				-0.43055155873298645,
				-0.38199877738952637
			],
			"type":"VEC3"
		},
		{
			"bufferView":5,
			"componentType":5126,
			"count":344,
			"type":"VEC3"
		},
		{
			"bufferView":6,
			"componentType":5126,
			"count":344,
			"type":"VEC2"
		},
		{
			"bufferView":7,
			"componentType":5123,
			"count":1008,
			"type":"SCALAR"
		},
		{
			"bufferView":8,
			"componentType":5126,
			"count":4,
			"max":[
				0.40156763792037964,
				-0.5614684224128723,
				0.2630644738674164
			],
			"min":[
				-0.4442310929298401,
				-0.5614714026451111,
				-0.2490234076976776
			],
			"type":"VEC3"
		},
		{
			"bufferView":9,
			"componentType":5126,
			"count":4,
			"type":"VEC3"
		},
		{
			"bufferView":10,
			"componentType":5126,
			"count":4,
			"type":"VEC2"
		},
		{
			"bufferView":11,
			"componentType":5123,
			"count":6,
			"type":"SCALAR"
		},
		{
			"bufferView":13,
			"componentType":5126,
			"count":4,
			"max":[
				0.6738541126251221,
				-0.21703822910785675,
				0.5
			],
			"min":[
				-0.6738555431365967,
				-0.21703822910785675,
				-0.4999997615814209
			],
			"type":"VEC3"
		},
		{
			"bufferView":14,
			"componentType":5126,
			"count":4,
			"type":"VEC3"
		},
		{
			"bufferView":15,
			"componentType":5126,
			"count":4,
			"type":"VEC2"
		},
		{
			"bufferView":17,
			"componentType":5126,
			"count":4,
			"max":[
				0.7915198802947998,
				-0.8027190566062927,
				0.4985712468624115
			],
			"min":[
				-0.7928103804588318,
				-0.8027190566062927,
				-0.4999999701976776
			],
			"type":"VEC3"
		},
		{
			"bufferView":18,
			"componentType":5126,
			"count":4,
			"type":"VEC3"
		},
		{
			"bufferView":19,
			"componentType":5126,
			"count":4,
			"type":"VEC2"
		}
	],
	"bufferViews":[
		{
			"buffer":0,
			"byteLength":37152,
			"byteOffset":0,
			"target":34962
		},
		{
			"buffer":0,
			"byteLength":37152,
			"byteOffset":37152,
			"target":34962
		},
		{
			"buffer":0,
			"byteLength":24768,
			"byteOffset":74304,
			"target":34962
		},
		{
			"buffer":0,
			"byteLength":12360,
			"byteOffset":99072,
			"target":34963
		},
		{
			"buffer":0,
			"byteLength":4128,
			"byteOffset":111432,
			"target":34962
		},
		{
			"buffer":0,
			"byteLength":4128,
			"byteOffset":115560,
			"target":34962
		},
		{
			"buffer":0,
			"byteLength":2752,
			"byteOffset":119688,
			"target":34962
		},
		{
			"buffer":0,
			"byteLength":2016,
			"byteOffset":122440,
			"target":34963
		},
		{
			"buffer":0,
			"byteLength":48,
			"byteOffset":124456,
			"target":34962
		},
		{
			"buffer":0,
			"byteLength":48,
			"byteOffset":124504,
			"target":34962
		},
		{
			"buffer":0,
			"byteLength":32,
			"byteOffset":124552,
			"target":34962
		},
		{
			"buffer":0,
			"byteLength":12,
			"byteOffset":124584,
			"target":34963
		},
		{
			"buffer":0,
			"byteLength":216178,
			"byteOffset":124596
		},
		{
			"buffer":0,
			"byteLength":48,
			"byteOffset":340776,
			"target":34962
		},
		{
			"buffer":0,
			"byteLength":48,
			"byteOffset":340824,
			"target":34962
		},
		{
			"buffer":0,
			"byteLength":32,
			"byteOffset":340872,
			"target":34962
		},
		{
			"buffer":0,
			"byteLength":11663,
			"byteOffset":340904
		},
		{
			"buffer":0,
			"byteLength":48,
			"byteOffset":352568,
			"target":34962
		},
		{
			"buffer":0,
			"byteLength":48,
			"byteOffset":352616,
			"target":34962
		},
		{
			"buffer":0,
			"byteLength":32,
			"byteOffset":352664,
			"target":34962
		},
		{
			"buffer":0,
			"byteLength":27667,
			"byteOffset":352696
		}
	],
	"samplers":[
		{
			"magFilter":9729,
			"minFilter":9987,
			"wrapS":33071,
			"wrapT":33071
		}
	],
	"buffers":[
		{
			"byteLength":380364,
			"uri":"data:application/octet-stream;base64,"
		}
	]
}
