{
	"asset":{
		"generator":"Khronos glTF Blender I/O v3.6.27",
		"version":"2.0"
	},
	"scene":0,
	"scenes":[
		{
			"name":"Scene",
			"nodes":[
				0,
				1,
				2,
				3
			]
		}
	],
	"nodes":[
		{
			"mesh":0,
			"name":"Cube",
			"rotation":[
				0.7071068286895752,
				0,
				0,
				0.7071068286895752
			]
		},
		{
			"mesh":1,
			"name":"Text",
			"rotation":[
				0.7071068286895752,
				0,
				0,
				0.7071068286895752
			],
			"scale":[
				0.0409649983048439,
				1,
				0.044471777975559235
			],
			"translation":[
				-0.27709048986434937,
				-0.1931786835193634,
				0.43445155024528503
			]
		},
		{
			"mesh":2,
			"name":"env_chip",
			"rotation":[
				0.7071068286895752,
				0,
				0,
				0.7071068286895752
			],
			"scale":[
				0.07999999821186066,
				0.07999999821186066,
				0.07999999821186066
			],
			"translation":[
				-0.2883836328983307,
				0.06408480554819107,
				0.021263062953948975
			]
		},
		{
			"mesh":3,
			"name":"millionaire_club",
			"rotation":[
				0.7071068286895752,
				0,
				0,
				0.7071068286895752
			],
			"scale":[
				0.5400000214576721,
				1,
				0.5400000214576721
			],
			"translation":[
				0.066006600856781,
				0.05975113809108734,
				0.5658033490180969
			]
		}
	],
	"materials":[
		{
			"alphaCutoff":0,
			"alphaMode":"MASK",
			"name":"Gold",
			"pbrMetallicRoughness":{
				"baseColorFactor":[
					0.004241899121552706,
					0.003633501473814249,
					0,
					1
				],
				"metallicFactor":0.8999999761581421,
				"roughnessFactor":0.3779527544975281
			}
		},
		{
			"doubleSided":true,
			"name":"Engraved",
			"pbrMetallicRoughness":{
				"baseColorFactor":[
					0.5088807940483093,
					0.5088809132575989,
					0.5088813900947571,
					1
				],
				"metallicFactor":0.9763779640197754
			}
		},
		{
			"alphaMode":"BLEND",
			"doubleSided":true,
			"name":"env_chip",
			"pbrMetallicRoughness":{
				"baseColorTexture":{
					"index":0
				},
				"metallicFactor":0.9685039520263672,
				"roughnessFactor":0.36614173650741577
			}
		},
		{
			"alphaMode":"BLEND",
			"doubleSided":true,
			"name":"millionaire_club",
			"pbrMetallicRoughness":{
				"baseColorTexture":{
					"index":1
				},
				"metallicFactor":0.9842519760131836
			}
		}
	],
	"meshes":[
		{
			"name":"Credit Card",
			"primitives":[
				{
					"attributes":{
						"POSITION":0,
						"NORMAL":1,
						"TEXCOORD_0":2
					},
					"indices":3,
					"material":0
				}
			]
		},
		{
			"name":"Ivan D.",
			"primitives":[
				{
					"attributes":{
						"POSITION":4,
						"NORMAL":5,
						"TEXCOORD_0":6
					},
					"indices":7,
					"material":1
				}
			]
		},
		{
			"name":"env_chip",
			"primitives":[
				{
					"attributes":{
						"POSITION":8,
						"NORMAL":9,
						"TEXCOORD_0":10
					},
					"indices":11,
					"material":2
				}
			]
		},
		{
			"name":"millionaire_club",
			"primitives":[
				{
					"attributes":{
						"POSITION":12,
						"NORMAL":13,
						"TEXCOORD_0":14
					},
					"indices":11,
					"material":3
				}
			]
		}
	],
	"textures":[
		{
			"sampler":0,
			"source":0
		},
		{
			"sampler":0,
			"source":1
		}
	],
	"images":[
		{
			"bufferView":12,
			"mimeType":"image/png",
			"name":"env_chip"
		},
		{
			"bufferView":16,
			"mimeType":"image/png",
			"name":"millionaire_club"
		}
	],
	"accessors":[
		{
			"bufferView":0,
			"componentType":5126,
			"count":3096,
			"max":[
				0.42800000309944153,
				0.0037999998312443495,
				0.2694999873638153
			],
			"min":[
				-0.42800000309944153,
				-0.0037999998312443495,
				-0.2694999873638153
			],
			"type":"VEC3"
		},
		{
			"bufferView":1,
			"componentType":5126,
			"count":3096,
			"type":"VEC3"
		},
		{
			"bufferView":2,
			"componentType":5126,
			"count":3096,
			"type":"VEC2"
		},
		{
			"bufferView":3,
			"componentType":5123,
			"count":6180,
			"type":"SCALAR"
		},
		{
			"bufferView":4,
			"componentType":5126,
			"count":524,
			"max":[
				1.7840003967285156,
				-0.43055155873298645,
				0.3090019226074219
			],
			"min":[
				-1.7550005912780762,
				-0.43055155873298645,
				-0.38199949264526367
			],
			"type":"VEC3"
		},
		{
			"bufferView":5,
			"componentType":5126,
			"count":524,
			"type":"VEC3"
		},
		{
			"bufferView":6,
			"componentType":5126,
			"count":524,
			"type":"VEC2"
		},
		{
			"bufferView":7,
			"componentType":5123,
			"count":1542,
			"type":"SCALAR"
		},
		{
			"bufferView":8,
			"componentType":5126,
			"count":4,
			"max":[
				0.6738541126251221,
				-0.21703822910785675,
				0.5
			],
			"min":[
				-0.6738555431365967,
				-0.21703822910785675,
				-0.4999997615814209
			],
			"type":"VEC3"
		},
		{
			"bufferView":9,
			"componentType":5126,
			"count":4,
			"type":"VEC3"
		},
		{
			"bufferView":10,
			"componentType":5126,
			"count":4,
			"type":"VEC2"
		},
		{
			"bufferView":11,
			"componentType":5123,
			"count":6,
			"type":"SCALAR"
		},
		{
			"bufferView":13,
			"componentType":5126,
			"count":4,
			"max":[
				0.6703797578811646,
				-0.5619033575057983,
				0.5
			],
			"min":[
				-0.7928105592727661,
				-0.5619049668312073,
				-0.3884434998035431
			],
			"type":"VEC3"
		},
		{
			"bufferView":14,
			"componentType":5126,
			"count":4,
			"type":"VEC3"
		},
		{
			"bufferView":15,
			"componentType":5126,
			"count":4,
			"type":"VEC2"
		}
	],
	"bufferViews":[
		{
			"buffer":0,
			"byteLength":37152,
			"byteOffset":0,
			"target":34962
		},
		{
			"buffer":0,
			"byteLength":37152,
			"byteOffset":37152,
			"target":34962
		},
		{
			"buffer":0,
			"byteLength":24768,
			"byteOffset":74304,
			"target":34962
		},
		{
			"buffer":0,
			"byteLength":12360,
			"byteOffset":99072,
			"target":34963
		},
		{
			"buffer":0,
			"byteLength":6288,
			"byteOffset":111432,
			"target":34962
		},
		{
			"buffer":0,
			"byteLength":6288,
			"byteOffset":117720,
			"target":34962
		},
		{
			"buffer":0,
			"byteLength":4192,
			"byteOffset":124008,
			"target":34962
		},
		{
			"buffer":0,
			"byteLength":3084,
			"byteOffset":128200,
			"target":34963
		},
		{
			"buffer":0,
			"byteLength":48,
			"byteOffset":131284,
			"target":34962
		},
		{
			"buffer":0,
			"byteLength":48,
			"byteOffset":131332,
			"target":34962
		},
		{
			"buffer":0,
			"byteLength":32,
			"byteOffset":131380,
			"target":34962
		},
		{
			"buffer":0,
			"byteLength":12,
			"byteOffset":131412,
			"target":34963
		},
		{
			"buffer":0,
			"byteLength":11663,
			"byteOffset":131424
		},
		{
			"buffer":0,
			"byteLength":48,
			"byteOffset":143088,
			"target":34962
		},
		{
			"buffer":0,
			"byteLength":48,
			"byteOffset":143136,
			"target":34962
		},
		{
			"buffer":0,
			"byteLength":32,
			"byteOffset":143184,
			"target":34962
		},
		{
			"buffer":0,
			"byteLength":80070,
			"byteOffset":143216
		}
	],
	"samplers":[
		{
			"magFilter":9729,
			"minFilter":9987,
			"wrapS":33071,
			"wrapT":33071
		}
	],
	"buffers":[
		{
			"byteLength":223288,
			"uri":"data:application/octet-stream;base64,"
		}
	]
}
